<svg id="Calque_1" data-name="Calque 1" xmlns="http://www.w3.org/2000/svg" viewBox="0 0 957.08 267.84"><defs><style>.cls-1{fill:#ff004f;}.cls-2{fill:#00f7ef;}</style></defs><title>Logo TikTok</title><path class="cls-1" d="M333.82,161.8h42.74v10.74H361.63v39.12h-13V172.54H333.82Z" transform="translate(-33.46 -50.58)"/><path class="cls-1" d="M390,157.36a7.19,7.19,0,0,1,0,9.71,7,7,0,0,1-9.6,0,7.19,7.19,0,0,1,0-9.71,7.06,7.06,0,0,1,9.6,0Zm-11,15.82h12.59v38.48H379Z" transform="translate(-33.46 -50.58)"/><path class="cls-1" d="M423.43,211.66l-8.11-14.51-3.91,4.05v10.45H398.75V158.89h12.66V186.2l12.3-13h14.37L424,188l14.37,23.61Z" transform="translate(-33.46 -50.58)"/><path class="cls-1" d="M436.24,161.8H479v10.74H464v39.12H451V172.54H436.24Z" transform="translate(-33.46 -50.58)"/><path class="cls-1" d="M505.72,175.21a17.94,17.94,0,0,1,7.4,6.9,21.52,21.52,0,0,1,0,20.62,17.94,17.94,0,0,1-7.4,6.9,26,26,0,0,1-22,0,17.69,17.69,0,0,1-7.36-6.9,21.78,21.78,0,0,1,0-20.62,17.69,17.69,0,0,1,7.36-6.9,26,26,0,0,1,22,0Zm-17,10.42a10.17,10.17,0,0,0-2.28,6.9,10.28,10.28,0,0,0,2.28,7,7.52,7.52,0,0,0,6,2.63,7.6,7.6,0,0,0,6-2.63,10.28,10.28,0,0,0,2.28-7,10.08,10.08,0,0,0-2.31-6.9,7.63,7.63,0,0,0-6-2.63A7.52,7.52,0,0,0,488.72,185.63Z" transform="translate(-33.46 -50.58)"/><path class="cls-1" d="M544.41,211.66l-8.11-14.51-3.91,4.05v10.45H519.73V158.89h12.66V186.2l12.3-13h14.37L545,188l14.37,23.61Z" transform="translate(-33.46 -50.58)"/><path class="cls-1" d="M609.8,164.93a22.92,22.92,0,0,1,9.35,8.78,26.82,26.82,0,0,1,0,26,22.87,22.87,0,0,1-9.53,8.82,30.71,30.71,0,0,1-14.12,3.13h-21V161.8H596A29.53,29.53,0,0,1,609.8,164.93ZM603,199.36a12.09,12.09,0,0,0,4.55-5,16.48,16.48,0,0,0,1.64-7.47,15.8,15.8,0,0,0-1.74-7.54,12.75,12.75,0,0,0-4.8-5.09,13.4,13.4,0,0,0-7-1.81h-8.18v28.73h8.82A12.58,12.58,0,0,0,603,199.36Z" transform="translate(-33.46 -50.58)"/><path class="cls-1" d="M655,175.21a17.94,17.94,0,0,1,7.4,6.9,21.52,21.52,0,0,1,0,20.62,17.94,17.94,0,0,1-7.4,6.9,26,26,0,0,1-22,0,17.69,17.69,0,0,1-7.36-6.9,21.78,21.78,0,0,1,0-20.62,17.69,17.69,0,0,1,7.36-6.9,26,26,0,0,1,22,0Zm-17,10.42a10.17,10.17,0,0,0-2.28,6.9,10.28,10.28,0,0,0,2.28,7,7.52,7.52,0,0,0,6,2.63,7.6,7.6,0,0,0,6-2.63,10.28,10.28,0,0,0,2.28-7,10.08,10.08,0,0,0-2.31-6.9,7.63,7.63,0,0,0-6-2.63A7.52,7.52,0,0,0,638,185.63Z" transform="translate(-33.46 -50.58)"/><path class="cls-1" d="M662.25,173.18h12.87l7.68,26,7.54-26h12.09l7.61,26,7.68-26H730.1L716,211.66H703.5l-7.33-23.75-7.4,23.75H676.26Z" transform="translate(-33.46 -50.58)"/><path class="cls-1" d="M767.26,176.67q3.8,4,3.8,10.74v24.25H758.48V191a7.21,7.21,0,0,0-1.78-5.16,6.24,6.24,0,0,0-4.76-1.88,7.31,7.31,0,0,0-5.16,2.06,8.38,8.38,0,0,0-2.38,5.26v20.34H731.74V173.18h12.66v6.26a13.67,13.67,0,0,1,5.3-5,15.69,15.69,0,0,1,7.43-1.71A13.37,13.37,0,0,1,767.26,176.67Z" transform="translate(-33.46 -50.58)"/><path class="cls-1" d="M777.18,158.89h12.66v52.77H777.18Z" transform="translate(-33.46 -50.58)"/><path class="cls-1" d="M825.9,175.21a17.94,17.94,0,0,1,7.4,6.9,21.52,21.52,0,0,1,0,20.62,17.94,17.94,0,0,1-7.4,6.9,26,26,0,0,1-22,0,17.69,17.69,0,0,1-7.36-6.9,21.78,21.78,0,0,1,0-20.62,17.69,17.69,0,0,1,7.36-6.9,26,26,0,0,1,22,0Zm-17,10.42a10.17,10.17,0,0,0-2.28,6.9,10.28,10.28,0,0,0,2.28,7,7.52,7.52,0,0,0,6,2.63,7.6,7.6,0,0,0,6-2.63,10.28,10.28,0,0,0,2.28-7,10.08,10.08,0,0,0-2.31-6.9,7.63,7.63,0,0,0-6-2.63A7.52,7.52,0,0,0,808.9,185.63Z" transform="translate(-33.46 -50.58)"/><path class="cls-1" d="M869.28,176.35q4.41,3.66,4.48,10.28v25H861.31v-4.34q-3.84,4.91-11.59,4.91-6.12,0-9.64-3.31a11.4,11.4,0,0,1-3.52-8.71,10.34,10.34,0,0,1,3.81-8.53q3.8-3.06,10.92-3.13h10v-.43a5.13,5.13,0,0,0-1.88-4.27,8.6,8.6,0,0,0-5.44-1.49,22,22,0,0,0-5.44.78,32.34,32.34,0,0,0-6.08,2.28L839,176.88a50,50,0,0,1,9-3.16,38.2,38.2,0,0,1,8.93-1Q864.87,172.69,869.28,176.35Zm-10.67,25.89a6,6,0,0,0,2.7-3.59V195.3h-7.54q-5.33,0-5.33,4a3.93,3.93,0,0,0,1.39,3.16,5.71,5.71,0,0,0,3.81,1.17A8.93,8.93,0,0,0,858.61,202.24Z" transform="translate(-33.46 -50.58)"/><path class="cls-1" d="M918.28,158.89v52.77H905.62v-5a13,13,0,0,1-4.87,4.09,14.81,14.81,0,0,1-6.51,1.39,17.57,17.57,0,0,1-9.39-2.49,16.73,16.73,0,0,1-6.29-7,23.15,23.15,0,0,1-2.24-10.42,22.62,22.62,0,0,1,2.2-10.24,16.32,16.32,0,0,1,6.19-6.83,17.47,17.47,0,0,1,9.25-2.42,15.14,15.14,0,0,1,6.65,1.42,14.08,14.08,0,0,1,5,4.05V158.89Zm-14.94,40.65a11.76,11.76,0,0,0,0-13.9,8.1,8.1,0,0,0-12,0,11.56,11.56,0,0,0,0,13.87,7.58,7.58,0,0,0,6,2.67A7.48,7.48,0,0,0,903.35,199.53Z" transform="translate(-33.46 -50.58)"/><path class="cls-1" d="M956.83,178.3q5,5.55,5,15.22,0,1.49-.07,2.28H935.07a9.23,9.23,0,0,0,3.2,5,8.85,8.85,0,0,0,5.55,1.74,12,12,0,0,0,4.8-1,13.55,13.55,0,0,0,4.23-2.92l6.61,6.61a19.5,19.5,0,0,1-7.22,5.09,24.92,24.92,0,0,1-9.57,1.74,23,23,0,0,1-10.81-2.42,16.8,16.8,0,0,1-7.08-6.83,20.71,20.71,0,0,1-2.45-10.24,21.23,21.23,0,0,1,2.49-10.42,17.19,17.19,0,0,1,7-7,21.84,21.84,0,0,1,10.53-2.45Q951.78,172.76,956.83,178.3ZM949.57,189a7.41,7.41,0,0,0-2-5.37,7.44,7.44,0,0,0-10.17,0,9.9,9.9,0,0,0-2.67,5.4Z" transform="translate(-33.46 -50.58)"/><path class="cls-1" d="M983.32,174.46a14.49,14.49,0,0,1,7.22-1.78v11.59a19.15,19.15,0,0,0-1.92-.07,11.72,11.72,0,0,0-7.25,2.1,8,8,0,0,0-3.2,5.73v19.63H965.51V173.18h12.66v6.4A13.87,13.87,0,0,1,983.32,174.46Z" transform="translate(-33.46 -50.58)"/><path class="cls-2" d="M329.36,166.18h42.74v10.74H357.17V216h-13V176.92H329.36Z" transform="translate(-33.46 -50.58)"/><path class="cls-2" d="M385.51,161.74a7.19,7.19,0,0,1,0,9.71,7,7,0,0,1-9.6,0,7.19,7.19,0,0,1,0-9.71,7.06,7.06,0,0,1,9.6,0Zm-11,15.82h12.59V216H374.52Z" transform="translate(-33.46 -50.58)"/><path class="cls-2" d="M419,216l-8.11-14.51L407,205.59V216H394.29V163.27H407v27.31l12.3-13h14.37l-14.08,14.86L433.91,216Z" transform="translate(-33.46 -50.58)"/><path class="cls-2" d="M431.78,166.18h42.74v10.74H459.58V216h-13V176.92H431.78Z" transform="translate(-33.46 -50.58)"/><path class="cls-2" d="M501.26,179.59a17.94,17.94,0,0,1,7.4,6.9,21.52,21.52,0,0,1,0,20.62,17.94,17.94,0,0,1-7.4,6.9,26,26,0,0,1-22,0,17.69,17.69,0,0,1-7.36-6.9,21.78,21.78,0,0,1,0-20.62,17.69,17.69,0,0,1,7.36-6.9,26,26,0,0,1,22,0Zm-17,10.42a10.17,10.17,0,0,0-2.28,6.9,10.28,10.28,0,0,0,2.28,7,7.52,7.52,0,0,0,6,2.63,7.6,7.6,0,0,0,6-2.63,10.28,10.28,0,0,0,2.28-7,10.08,10.08,0,0,0-2.31-6.9,7.63,7.63,0,0,0-6-2.63A7.52,7.52,0,0,0,484.26,190Z" transform="translate(-33.46 -50.58)"/><path class="cls-2" d="M539.95,216l-8.11-14.51-3.91,4.05V216H515.27V163.27h12.66v27.31l12.3-13H554.6l-14.08,14.86L554.88,216Z" transform="translate(-33.46 -50.58)"/><path class="cls-2" d="M605.34,169.31a22.92,22.92,0,0,1,9.35,8.78,26.82,26.82,0,0,1,0,26,22.87,22.87,0,0,1-9.53,8.82A30.71,30.71,0,0,1,591,216H570V166.18h21.48A29.53,29.53,0,0,1,605.34,169.31Zm-6.79,34.42a12.09,12.09,0,0,0,4.55-5,16.48,16.48,0,0,0,1.64-7.47,15.8,15.8,0,0,0-1.74-7.54,12.75,12.75,0,0,0-4.8-5.09,13.4,13.4,0,0,0-7-1.81H583v28.73h8.82A12.58,12.58,0,0,0,598.55,203.74Z" transform="translate(-33.46 -50.58)"/><path class="cls-2" d="M650.54,179.59a17.94,17.94,0,0,1,7.4,6.9,21.52,21.52,0,0,1,0,20.62,17.94,17.94,0,0,1-7.4,6.9,26,26,0,0,1-22,0,17.69,17.69,0,0,1-7.36-6.9,21.78,21.78,0,0,1,0-20.62,17.69,17.69,0,0,1,7.36-6.9,26,26,0,0,1,22,0Zm-17,10.42a10.17,10.17,0,0,0-2.28,6.9,10.28,10.28,0,0,0,2.28,7,7.52,7.52,0,0,0,6,2.63,7.6,7.6,0,0,0,6-2.63,10.28,10.28,0,0,0,2.28-7,10.08,10.08,0,0,0-2.31-6.9,7.63,7.63,0,0,0-6-2.63A7.52,7.52,0,0,0,633.54,190Z" transform="translate(-33.46 -50.58)"/><path class="cls-2" d="M657.79,177.56h12.87l7.68,26,7.54-26H698l7.61,26,7.68-26h12.37L711.56,216H699l-7.33-23.75L684.32,216H671.8Z" transform="translate(-33.46 -50.58)"/><path class="cls-2" d="M762.8,181q3.8,4,3.8,10.74V216H754V195.42a7.21,7.21,0,0,0-1.78-5.16,6.24,6.24,0,0,0-4.76-1.88,7.31,7.31,0,0,0-5.16,2.06,8.38,8.38,0,0,0-2.38,5.26V216H727.28V177.56h12.66v6.26a13.67,13.67,0,0,1,5.3-5,15.69,15.69,0,0,1,7.43-1.71A13.37,13.37,0,0,1,762.8,181Z" transform="translate(-33.46 -50.58)"/><path class="cls-2" d="M772.72,163.27h12.66V216H772.72Z" transform="translate(-33.46 -50.58)"/><path class="cls-2" d="M821.44,179.59a17.94,17.94,0,0,1,7.4,6.9,21.52,21.52,0,0,1,0,20.62,17.94,17.94,0,0,1-7.4,6.9,26,26,0,0,1-22,0,17.69,17.69,0,0,1-7.36-6.9,21.78,21.78,0,0,1,0-20.62,17.69,17.69,0,0,1,7.36-6.9,26,26,0,0,1,22,0Zm-17,10.42a10.17,10.17,0,0,0-2.28,6.9,10.28,10.28,0,0,0,2.28,7,7.52,7.52,0,0,0,6,2.63,7.6,7.6,0,0,0,6-2.63,10.28,10.28,0,0,0,2.28-7,10.08,10.08,0,0,0-2.31-6.9,7.63,7.63,0,0,0-6-2.63A7.52,7.52,0,0,0,804.44,190Z" transform="translate(-33.46 -50.58)"/><path class="cls-2" d="M864.82,180.73q4.41,3.66,4.48,10.28v25H856.85V211.7q-3.84,4.91-11.59,4.91-6.12,0-9.64-3.31a11.4,11.4,0,0,1-3.52-8.71,10.34,10.34,0,0,1,3.81-8.53q3.8-3.06,10.92-3.13h10v-.43a5.13,5.13,0,0,0-1.88-4.27,8.6,8.6,0,0,0-5.44-1.49,22,22,0,0,0-5.44.78A32.34,32.34,0,0,0,838,189.8l-3.48-8.53a50,50,0,0,1,9-3.16,38.2,38.2,0,0,1,8.93-1Q860.41,177.07,864.82,180.73Zm-10.67,25.89a6,6,0,0,0,2.7-3.59v-3.34h-7.54q-5.33,0-5.33,4a3.93,3.93,0,0,0,1.39,3.16,5.71,5.71,0,0,0,3.81,1.17A8.93,8.93,0,0,0,854.15,206.62Z" transform="translate(-33.46 -50.58)"/><path class="cls-2" d="M913.82,163.27V216H901.16v-5a13,13,0,0,1-4.87,4.09,14.81,14.81,0,0,1-6.51,1.39A17.57,17.57,0,0,1,880.4,214a16.73,16.73,0,0,1-6.29-7,23.15,23.15,0,0,1-2.24-10.42,22.62,22.62,0,0,1,2.2-10.24,16.32,16.32,0,0,1,6.19-6.83,17.47,17.47,0,0,1,9.25-2.42,15.14,15.14,0,0,1,6.65,1.42,14.08,14.08,0,0,1,5,4.05V163.27Zm-14.94,40.65a11.76,11.76,0,0,0,0-13.9,8.1,8.1,0,0,0-12,0,11.56,11.56,0,0,0,0,13.87,7.58,7.58,0,0,0,6,2.67A7.48,7.48,0,0,0,898.89,203.91Z" transform="translate(-33.46 -50.58)"/><path class="cls-2" d="M952.37,182.68q5,5.55,5,15.22,0,1.49-.07,2.28H930.61a9.23,9.23,0,0,0,3.2,5,8.85,8.85,0,0,0,5.55,1.74,12,12,0,0,0,4.8-1,13.55,13.55,0,0,0,4.23-2.92l6.61,6.61a19.5,19.5,0,0,1-7.22,5.09,24.92,24.92,0,0,1-9.57,1.74A23,23,0,0,1,927.41,214a16.8,16.8,0,0,1-7.08-6.83A20.71,20.71,0,0,1,917.88,197a21.23,21.23,0,0,1,2.49-10.42,17.19,17.19,0,0,1,7-7,21.84,21.84,0,0,1,10.53-2.45Q947.32,177.14,952.37,182.68Zm-7.25,10.74a7.41,7.41,0,0,0-2-5.37A7.44,7.44,0,0,0,933,188a9.9,9.9,0,0,0-2.67,5.4Z" transform="translate(-33.46 -50.58)"/><path class="cls-2" d="M978.86,178.84a14.49,14.49,0,0,1,7.22-1.78v11.59a19.15,19.15,0,0,0-1.92-.07,11.72,11.72,0,0,0-7.25,2.1,8,8,0,0,0-3.2,5.73V216H961V177.56H973.7V184A13.87,13.87,0,0,1,978.86,178.84Z" transform="translate(-33.46 -50.58)"/><path class="cls-1" d="M278.26,164.52l-3.79-4.91a389.47,389.47,0,0,0-70.83-70.83l-5.56-4.28-.11-.09-.35-.26a50.11,50.11,0,0,0-5.74-3.75h0a50.26,50.26,0,0,0,17.25,37.89,370.13,370.13,0,0,1,50,53.14l3.79,4.92a32.21,32.21,0,0,1-.12,39.5l-5.26,6.75a370.17,370.17,0,0,1-64.06,64.06l-7.21,5.64a32.33,32.33,0,0,1-39,.47A371,371,0,0,1,106,257.22,372,372,0,0,1,70.47,216l-.45-.61A32,32,0,0,1,70,177l.48-.65a369.9,369.9,0,0,1,52.84-57.42,50.07,50.07,0,0,0,16.94-37.62V81a50.14,50.14,0,0,0-4.41,2.93l-.23.17-1.16.87A389.15,389.15,0,0,0,55,164.8l-.48.64a51.6,51.6,0,0,0,0,61.51l.46.61A390.7,390.7,0,0,0,92.35,270.9a390.56,390.56,0,0,0,43.34,37.39,51.72,51.72,0,0,0,62.48-.76l7.21-5.64a389.9,389.9,0,0,0,67.41-67.41l5.26-6.74A51.57,51.57,0,0,0,278.26,164.52Z" transform="translate(-33.46 -50.58)"/><path class="cls-1" d="M228.48,192.74l-52.9,52.9,0,0-.44.41-.13.12-.37.32-.12.09-.4.32L174,247l-.47.33,0,0a13.39,13.39,0,0,1-6.11,2.18h-.1l-.56,0-.67,0-.68,0-.55,0h-.1a13.37,13.37,0,0,1-6.1-2.18l0,0-.46-.33-.08-.05-.4-.32-.12-.09-.37-.32-.14-.12-.44-.41,0,0L104.82,193.9a13.44,13.44,0,0,1,19-19l28.81,28.81v-133a13.44,13.44,0,1,1,26.88,0v133l30-30a13.44,13.44,0,1,1,19,19Z" transform="translate(-33.46 -50.58)"/><path class="cls-2" d="M267.4,157.85l-3.79-4.91a389.47,389.47,0,0,0-70.83-70.83l-5.56-4.28-.11-.09-.35-.26A50.11,50.11,0,0,0,181,73.72h0a50.26,50.26,0,0,0,17.25,37.89,370.13,370.13,0,0,1,50,53.14l3.79,4.92a32.21,32.21,0,0,1-.12,39.5l-5.26,6.75A370.17,370.17,0,0,1,182.62,280l-7.21,5.64a32.33,32.33,0,0,1-39,.47,371,371,0,0,1-41.19-35.54,372,372,0,0,1-35.57-41.22l-.45-.61a32,32,0,0,1,0-38.42l.48-.65a369.9,369.9,0,0,1,52.84-57.42,50.07,50.07,0,0,0,16.94-37.62v-.29A50.14,50.14,0,0,0,125,77.25l-.23.17-1.16.87a389.15,389.15,0,0,0-79.53,79.84l-.48.64a51.6,51.6,0,0,0,0,61.51l.46.61a390.7,390.7,0,0,0,37.39,43.34,390.56,390.56,0,0,0,43.34,37.39,51.72,51.72,0,0,0,62.48-.76l7.21-5.64a389.9,389.9,0,0,0,67.41-67.41l5.26-6.74A51.57,51.57,0,0,0,267.4,157.85Z" transform="translate(-33.46 -50.58)"/><path class="cls-2" d="M217.62,186.07,164.72,239l0,0-.44.41-.13.12-.37.32-.12.09-.4.32-.08.05-.47.33,0,0a13.39,13.39,0,0,1-6.11,2.18h-.1l-.56,0-.67,0-.68,0-.55,0h-.1a13.37,13.37,0,0,1-6.1-2.18l0,0-.46-.33-.08-.05-.4-.32-.12-.09-.37-.32-.14-.12-.44-.41,0,0L94,187.23a13.44,13.44,0,0,1,19-19L141.78,197V64a13.44,13.44,0,1,1,26.88,0V197l30-30a13.44,13.44,0,0,1,19,19Z" transform="translate(-33.46 -50.58)"/><path d="M274.8,162.05,271,157.14a389.47,389.47,0,0,0-70.83-70.83L194.61,82l-.11-.09-.35-.26a50.11,50.11,0,0,0-5.74-3.75h0a50.26,50.26,0,0,0,17.25,37.89,370.13,370.13,0,0,1,50,53.14l3.79,4.92a32.21,32.21,0,0,1-.12,39.5l-5.26,6.75A370.17,370.17,0,0,1,190,284.17l-7.21,5.64a32.33,32.33,0,0,1-39,.47,371,371,0,0,1-41.19-35.54A372,372,0,0,1,67,213.52l-.45-.61a32,32,0,0,1,0-38.42l.48-.65a369.9,369.9,0,0,1,52.84-57.42,50.07,50.07,0,0,0,16.94-37.62v-.29a50.14,50.14,0,0,0-4.41,2.93l-.23.17-1.16.87a389.15,389.15,0,0,0-79.53,79.84L51,163a51.6,51.6,0,0,0,0,61.51l.46.61a390.7,390.7,0,0,0,37.39,43.34,390.56,390.56,0,0,0,43.34,37.39,51.72,51.72,0,0,0,62.48-.76l7.21-5.64A389.9,389.9,0,0,0,269.34,232l5.26-6.74A51.57,51.57,0,0,0,274.8,162.05Z" transform="translate(-33.46 -50.58)"/><path d="M225,190.27l-52.9,52.9,0,0-.44.41-.13.12-.37.32-.12.09-.4.32-.08.05-.47.33,0,0a13.39,13.39,0,0,1-6.11,2.18h-.1l-.56,0-.67,0-.68,0-.55,0h-.1a13.37,13.37,0,0,1-6.1-2.18l0,0-.46-.33-.08-.05-.4-.32-.12-.09-.37-.32-.14-.12-.44-.41,0,0-51.75-51.75a13.44,13.44,0,0,1,19-19l28.81,28.81v-133a13.44,13.44,0,1,1,26.88,0v133l30-30a13.44,13.44,0,1,1,19,19Z" transform="translate(-33.46 -50.58)"/><path d="M332.23,163.32H375v10.74H360v39.12H347V174.06H332.23Z" transform="translate(-33.46 -50.58)"/><path d="M388.38,158.87a7.19,7.19,0,0,1,0,9.71,7,7,0,0,1-9.6,0,7.19,7.19,0,0,1,0-9.71,7.06,7.06,0,0,1,9.6,0Zm-11,15.82H390v38.48H377.39Z" transform="translate(-33.46 -50.58)"/><path d="M421.84,213.17l-8.11-14.51-3.91,4.05v10.45H397.16V160.4h12.66v27.31l12.3-13h14.37l-14.08,14.86,14.37,23.61Z" transform="translate(-33.46 -50.58)"/><path d="M434.64,163.32h42.74v10.74H462.45v39.12h-13V174.06H434.64Z" transform="translate(-33.46 -50.58)"/><path d="M504.13,176.72a17.94,17.94,0,0,1,7.4,6.9,21.52,21.52,0,0,1,0,20.62,17.94,17.94,0,0,1-7.4,6.9,26,26,0,0,1-22,0,17.69,17.69,0,0,1-7.36-6.9,21.78,21.78,0,0,1,0-20.62,17.69,17.69,0,0,1,7.36-6.9,26,26,0,0,1,22,0Zm-17,10.42a10.17,10.17,0,0,0-2.28,6.9,10.28,10.28,0,0,0,2.28,7,7.52,7.52,0,0,0,6,2.63,7.6,7.6,0,0,0,6-2.63,10.28,10.28,0,0,0,2.28-7,10.08,10.08,0,0,0-2.31-6.9,7.63,7.63,0,0,0-6-2.63A7.52,7.52,0,0,0,487.13,187.14Z" transform="translate(-33.46 -50.58)"/><path d="M542.82,213.17l-8.11-14.51-3.91,4.05v10.45H518.14V160.4H530.8v27.31l12.3-13h14.37l-14.08,14.86,14.37,23.61Z" transform="translate(-33.46 -50.58)"/><path d="M608.21,166.45a22.92,22.92,0,0,1,9.35,8.78,26.82,26.82,0,0,1,0,26A22.87,22.87,0,0,1,608,210a30.71,30.71,0,0,1-14.12,3.13h-21V163.32h21.48A29.53,29.53,0,0,1,608.21,166.45Zm-6.79,34.42a12.09,12.09,0,0,0,4.55-5,16.48,16.48,0,0,0,1.64-7.47,15.8,15.8,0,0,0-1.74-7.54,12.75,12.75,0,0,0-4.8-5.09,13.4,13.4,0,0,0-7-1.81h-8.18v28.73h8.82A12.58,12.58,0,0,0,601.42,200.87Z" transform="translate(-33.46 -50.58)"/><path d="M653.41,176.72a17.94,17.94,0,0,1,7.4,6.9,21.52,21.52,0,0,1,0,20.62,17.94,17.94,0,0,1-7.4,6.9,26,26,0,0,1-22,0,17.69,17.69,0,0,1-7.36-6.9,21.78,21.78,0,0,1,0-20.62,17.69,17.69,0,0,1,7.36-6.9,26,26,0,0,1,22,0Zm-17,10.42a10.17,10.17,0,0,0-2.28,6.9,10.28,10.28,0,0,0,2.28,7,7.52,7.52,0,0,0,6,2.63,7.6,7.6,0,0,0,6-2.63,10.28,10.28,0,0,0,2.28-7,10.08,10.08,0,0,0-2.31-6.9,7.63,7.63,0,0,0-6-2.63A7.52,7.52,0,0,0,636.41,187.14Z" transform="translate(-33.46 -50.58)"/><path d="M660.66,174.7h12.87l7.68,26,7.54-26h12.09l7.61,26,7.68-26h12.37l-14.08,38.48H701.91l-7.33-23.75-7.4,23.75H674.67Z" transform="translate(-33.46 -50.58)"/><path d="M765.67,178.18q3.8,4,3.8,10.74v24.25H756.88V192.55a7.21,7.21,0,0,0-1.78-5.16,6.24,6.24,0,0,0-4.76-1.88,7.31,7.31,0,0,0-5.16,2.06,8.38,8.38,0,0,0-2.38,5.26v20.34H730.14V174.7H742.8V181a13.67,13.67,0,0,1,5.3-5,15.69,15.69,0,0,1,7.43-1.71A13.37,13.37,0,0,1,765.67,178.18Z" transform="translate(-33.46 -50.58)"/><path d="M775.59,160.4h12.66v52.77H775.59Z" transform="translate(-33.46 -50.58)"/><path d="M824.3,176.72a17.94,17.94,0,0,1,7.4,6.9,21.52,21.52,0,0,1,0,20.62,17.94,17.94,0,0,1-7.4,6.9,26,26,0,0,1-22,0,17.69,17.69,0,0,1-7.36-6.9,21.78,21.78,0,0,1,0-20.62,17.69,17.69,0,0,1,7.36-6.9,26,26,0,0,1,22,0Zm-17,10.42A10.17,10.17,0,0,0,805,194a10.28,10.28,0,0,0,2.28,7,7.52,7.52,0,0,0,6,2.63,7.6,7.6,0,0,0,6-2.63,10.28,10.28,0,0,0,2.28-7,10.08,10.08,0,0,0-2.31-6.9,7.63,7.63,0,0,0-6-2.63A7.52,7.52,0,0,0,807.31,187.14Z" transform="translate(-33.46 -50.58)"/><path d="M867.69,177.86q4.41,3.66,4.48,10.28v25H859.72v-4.34q-3.84,4.91-11.59,4.91-6.12,0-9.64-3.31a11.4,11.4,0,0,1-3.52-8.71,10.34,10.34,0,0,1,3.81-8.53q3.8-3.06,10.92-3.13h10v-.43a5.13,5.13,0,0,0-1.88-4.27,8.6,8.6,0,0,0-5.44-1.49,22,22,0,0,0-5.44.78,32.34,32.34,0,0,0-6.08,2.28l-3.48-8.53a50,50,0,0,1,9-3.16,38.2,38.2,0,0,1,8.93-1Q863.28,174.2,867.69,177.86ZM857,203.75a6,6,0,0,0,2.7-3.59v-3.34h-7.54q-5.33,0-5.33,4a3.93,3.93,0,0,0,1.39,3.16,5.71,5.71,0,0,0,3.81,1.17A8.93,8.93,0,0,0,857,203.75Z" transform="translate(-33.46 -50.58)"/><path d="M916.69,160.4v52.77H904v-5a13,13,0,0,1-4.87,4.09,14.81,14.81,0,0,1-6.51,1.39,17.57,17.57,0,0,1-9.39-2.49,16.73,16.73,0,0,1-6.29-7,23.15,23.15,0,0,1-2.24-10.42,22.62,22.62,0,0,1,2.2-10.24,16.32,16.32,0,0,1,6.19-6.83,17.47,17.47,0,0,1,9.25-2.42,15.14,15.14,0,0,1,6.65,1.42,14.08,14.08,0,0,1,5,4.05V160.4ZM901.75,201a11.76,11.76,0,0,0,0-13.9,8.1,8.1,0,0,0-12,0,11.56,11.56,0,0,0,0,13.87,7.58,7.58,0,0,0,6,2.67A7.48,7.48,0,0,0,901.75,201Z" transform="translate(-33.46 -50.58)"/><path d="M955.24,179.82q5,5.55,5,15.22,0,1.49-.07,2.28H933.47a9.23,9.23,0,0,0,3.2,5,8.85,8.85,0,0,0,5.55,1.74,12,12,0,0,0,4.8-1,13.55,13.55,0,0,0,4.23-2.92l6.61,6.61a19.5,19.5,0,0,1-7.22,5.09,24.92,24.92,0,0,1-9.57,1.74,23,23,0,0,1-10.81-2.42,16.8,16.8,0,0,1-7.08-6.83,20.71,20.71,0,0,1-2.45-10.24,21.23,21.23,0,0,1,2.49-10.42,17.19,17.19,0,0,1,7-7,21.84,21.84,0,0,1,10.53-2.45Q950.19,174.27,955.24,179.82ZM948,190.56a7.41,7.41,0,0,0-2-5.37,7.44,7.44,0,0,0-10.17,0,9.9,9.9,0,0,0-2.67,5.4Z" transform="translate(-33.46 -50.58)"/><path d="M981.73,176a14.49,14.49,0,0,1,7.22-1.78v11.59a19.15,19.15,0,0,0-1.92-.07,11.72,11.72,0,0,0-7.25,2.1,8,8,0,0,0-3.2,5.73v19.63H963.91V174.7h12.66v6.4A13.87,13.87,0,0,1,981.73,176Z" transform="translate(-33.46 -50.58)"/></svg>